HIERARCHY
ROOT pelvis
{
  OFFSET 0 100 0
  CHANNELS 6 Xposition Yposition Zposition Zrotation Xrotation Yrotation
  JOINT pelvis_right_femur
  {
    OFFSET -10.78128 -3.44521 -0.5502486
    CHANNELS 3 Zrotation Xrotation Yrotation
    JOINT right_femur_tibia
    {
      OFFSET -0.8047443 -44.0398 -0.1307829
      CHANNELS 3 Zrotation Xrotation Yrotation
      JOINT right_tibia_foot
      {
        OFFSET 3.006224 -47.83518 -5
        CHANNELS 3 Zrotation Xrotation Yrotation
        End Site
        {
          OFFSET 0 -5 15
        }
      }
    }
  }
  JOINT pelvis_left_femur
  {
    OFFSET 10.78128 -3.44521 -0.5502486
    CHANNELS 3 Zrotation Xrotation Yrotation
    JOINT left_femur_tibia
    {
      OFFSET 0.8047443 -44.0398 -0.1307829
      CHANNELS 3 Zrotation Xrotation Yrotation
      JOINT left_tibia_foot
      {
        OFFSET -4.370144 -48.10324 -4.275266
        CHANNELS 3 Zrotation Xrotation Yrotation
        End Site
        {
          OFFSET 0 -5 15
        }
      }
    }
  }
  JOINT pelvis_spine1
  {
    OFFSET 0 6.468898 -3.129235
    CHANNELS 3 Zrotation Xrotation Yrotation
    JOINT spine1
    {
      OFFSET 0 23.15396 4.99043
      CHANNELS 3 Zrotation Xrotation Yrotation
      JOINT spine2
      {
        OFFSET 0 20.79997 -5.064912
        CHANNELS 3 Zrotation Xrotation Yrotation
        JOINT neck
        {
          OFFSET 0 14.38658 9.616178
          CHANNELS 3 Zrotation Xrotation Yrotation
          End Site
          {
            OFFSET 0 20 0
          }
        }
      }
      JOINT right_manubrium
      {
        OFFSET -5.722621 16.35077 3.967754
        CHANNELS 3 Zrotation Xrotation Yrotation
        JOINT right_clavicle
        {
          OFFSET -13.16364 1.694482 -4.693211
          CHANNELS 3 Zrotation Xrotation Yrotation
          JOINT right_humerus
          {
            OFFSET -28.5034 -0.3100689 -2.792744
            CHANNELS 3 Zrotation Xrotation Yrotation
            JOINT right_radius
            {
              OFFSET -25.15693 0.02248979 -1.271978
              CHANNELS 3 Zrotation Xrotation Yrotation
              End Site
              {
                OFFSET -15 0 0
              }
            }
          }
        }
      }
      JOINT left_manubrium
      {
        OFFSET 5.722621 16.35077 3.967754
        CHANNELS 3 Zrotation Xrotation Yrotation
        JOINT left_clavicle
        {
          OFFSET 13.16364 1.694482 -4.693211
          CHANNELS 3 Zrotation Xrotation Yrotation
          JOINT left_humerus
          {
            OFFSET 29.39168 -1.063119 -2.237045
            CHANNELS 3 Zrotation Xrotation Yrotation
            JOINT left_radius
            {
              OFFSET 24.59957 -0.9528479 0.9047498
              CHANNELS 3 Zrotation Xrotation Yrotation
              End Site
              {
                OFFSET 15 -0 -0
              }
            }
          }
        }
      }
    }
  }
}
MOTION
Frames: 21
Frame Time: 0.0416666666667
-310.9925 106.1761 3081.603 -2.447613 -9.687114 -19.33145 5.151965 5.030779 3.291739 -0 11.93464 -0 -5.312113 -7.618693 -4.786351 -1.390041 -10.7907 -5.077981 -0 53.55922 -0 -5.322358 -7.216462 18.47293 0.6953568 -0.8119668 5.982049 -1.471801 12.56988 -3.723365 2.505548 22.18888 3.27753 -0.6396769 -18.70224 7.387702 -4.284367 -23.71618 8.842998 93.98803 17.23559 -13.89932 -0 0 16.37818 -19.99376 9.297516 13.72136 1.838627 -21.76049 -7.621453 -90.59007 20.85774 25.9797 0 0 -21.14399 0.9297257 6.002625 20.31102
-312.7709 106.0926 3086.969 -2.405434 -9.351998 -20.11185 4.930078 9.169108 3.376648 -0 10.99544 -0 -4.719185 -9.808179 -4.108775 -0.1386225 -16.37091 -4.38023 -0 45.11813 -0 -5.571326 -7.576287 19.21431 0.8042351 -1.025553 6.597543 -1.598101 13.09506 -3.514292 2.397301 21.61072 2.849209 -0.849074 -18.50629 6.931527 -4.199648 -25.238 9.010734 92.98925 16.93171 -12.2345 -0 0 19.45288 -20.30926 10.21396 14.64096 1.541437 -20.95958 -7.673723 -91.98657 19.89352 29.34961 0 0 -19.46086 0.2333643 5.529143 21.09597
-314.4724 105.4424 3092.446 -2.593217 -8.572041 -20.81588 4.963934 12.4314 3.370065 -0 10.94711 -0 -4.045801 -12.00958 -3.339502 1.366624 -20.66021 -3.468797 -0 35.16581 -0 -5.696057 -7.42878 19.62575 0.8464807 -1.217408 7.166738 -1.697207 13.42106 -3.274209 2.297271 21.07816 2.458283 -1.064069 -18.2964 6.545921 -4.122859 -26.60744 9.087767 91.87679 16.63198 -10.50432 -0 0 22.48298 -20.53796 11.03388 15.48264 1.315514 -20.06617 -7.622141 -93.2868 19.06931 32.39886 0 0 -17.83116 -0.4392225 4.998351 21.80754
-316.1217 104.4349 3098.167 -2.848352 -7.591944 -21.49343 4.959006 14.9662 3.234747 -0 11.76883 -0 -3.351244 -13.96406 -2.538454 2.556616 -23.41486 -2.736953 -0 26.05209 -0 -5.688531 -6.934308 19.7345 0.8159798 -1.352843 7.653509 -1.765558 13.52132 -3.008294 2.212628 20.6557 2.150832 -1.257015 -18.11635 6.26569 -4.075435 -27.71527 9.073363 90.74968 16.30548 -8.841147 -0 0 25.22486 -20.66485 11.61814 16.15972 1.186173 -19.1279 -7.462843 -94.46954 18.49557 34.93969 0 0 -16.28052 -1.061603 4.426393 22.41359
-317.751 103.3278 3104.241 -2.926898 -6.720119 -22.16761 4.530773 17.03191 3.041815 -0 13.49856 -0 -2.741292 -14.99871 -1.792901 2.826737 -24.68594 -2.715346 -0 19.63307 -0 -5.609825 -6.510428 19.6868 0.7229182 -1.404303 8.03172 -1.807242 13.41101 -2.731726 2.15171 20.38907 1.956478 -1.405326 -17.99883 6.109276 -4.071287 -28.48551 8.984416 89.72744 15.94439 -7.391724 -0 0 27.45771 -20.69185 11.87089 16.60745 1.156881 -18.21318 -7.215393 -95.50589 18.23833 36.83726 0 0 -14.84903 -1.609663 3.840766 22.89647
-319.3942 102.3676 3110.729 -2.655179 -6.219483 -22.79684 3.450212 18.76523 2.919459 -0 16.48649 -0 -2.322316 -14.26748 -1.178371 1.898912 -24.67651 -3.691371 -0 16.65107 -0 -5.488376 -6.518593 19.66027 0.5910587 -1.359442 8.284931 -1.830743 13.14334 -2.470169 2.121751 20.29615 1.88079 -1.496433 -17.95093 6.075082 -4.105822 -28.88073 8.850911 88.92195 15.57815 -6.293935 -0 0 29.01088 -20.63204 11.7748 16.79379 1.209224 -17.40409 -6.922465 -96.34415 18.30833 38.01229 0 0 -13.61035 -2.059345 3.282988 23.25117
-321.0744 101.7616 3117.604 -2.05945 -6.229245 -23.258 1.849275 19.97821 2.907331 -0 21.30224 -0 -2.171004 -11.23747 -0.7377791 0.008677727 -23.51617 -5.452209 -0 16.60217 -0 -5.257693 -7.052689 19.73856 0.4498549 -1.221408 8.40362 -1.84503 12.7905 -2.253915 2.126913 20.36943 1.907702 -1.530427 -17.95349 6.146703 -4.156617 -28.89576 8.704249 88.41447 15.26743 -5.654011 -0 0 29.77682 -20.49747 11.38752 16.71699 1.310538 -16.78152 -6.64082 -96.91155 18.67269 38.43177 0 0 -12.67162 -2.385857 2.797612 23.48417
-322.7886 101.6629 3124.723 -1.380255 -6.724924 -23.38915 0.2217871 20.13307 2.867893 -0 28.24405 -0 -2.328631 -6.157064 -0.5044615 -2.211982 -21.18765 -7.378985 -0 18.13687 -0 -4.825456 -7.957132 19.8604 0.3256019 -1.003681 8.383078 -1.85673 12.41843 -2.109171 2.167759 20.58497 2.009622 -1.519297 -17.97295 6.303455 -4.195383 -28.54704 8.564822 88.24664 15.08185 -5.532207 -0 0 29.71356 -20.2896 10.80669 16.39521 1.424772 -16.40882 -6.426553 -97.12901 19.27604 38.09468 0 0 -12.15619 -2.564999 2.415628 23.61016
-324.499 102.1367 3131.833 -0.9379806 -7.523303 -23.0864 -0.8544715 18.55811 2.601779 -0 36.73503 -0 -2.783525 -0.1776106 -0.5364671 -4.074692 -17.66351 -8.839254 -0 19.75066 -0 -4.195884 -9.009442 19.88634 0.235256 -0.7252311 8.223617 -1.869252 12.06678 -2.051004 2.241967 20.91064 2.15906 -1.48255 -17.97684 6.529623 -4.202609 -27.86556 8.435535 88.42205 15.07727 -5.935781 -0 0 28.84478 -20.00212 10.13046 15.85998 1.522218 -16.32032 -6.319651 -96.92863 20.0556 37.02188 0 0 -12.17718 -2.575793 2.146611 23.64369
-326.1439 103.1114 3138.656 -0.9299444 -8.34874 -22.38244 -1.11704 14.82875 2.093922 -0 45.11174 -0 -3.430759 5.048158 -0.9104514 -5.181819 -13.09994 -9.578616 -0 20.40475 -0 -3.490193 -10.08709 19.71248 0.1838525 -0.4089634 7.932104 -1.883427 11.74092 -2.080085 2.345247 21.31081 2.336871 -1.440396 -17.94538 6.81803 -4.176789 -26.89638 8.303519 88.91014 15.28439 -6.814789 -0 0 27.25975 -19.63619 9.433671 15.15877 1.586332 -16.51709 -6.331989 -96.26909 20.94418 35.25576 0 0 -12.8063 -2.402982 1.985879 23.58731
-327.6694 104.3606 3144.996 -1.307112 -8.943909 -21.43019 -0.7663164 9.113132 1.557588 -0 51.14649 -0 -4.08053 8.131067 -1.653966 -5.543903 -7.918355 -9.782091 -0 19.79237 -0 -2.854577 -11.20343 19.32565 0.1651518 -0.08156761 7.52315 -1.898508 11.41751 -2.183554 2.471795 21.74923 2.53497 -1.406786 -17.87737 7.167131 -4.134673 -25.70143 8.148548 89.65067 15.7083 -8.063956 -0 0 25.107 -19.21616 8.762163 14.35957 1.617191 -16.96908 -6.442782 -95.15007 21.8672 32.86912 0 0 -14.04347 -2.039714 1.929575 23.42341
-329.0639 105.5598 3150.812 -1.820614 -9.16537 -20.40863 -0.2244831 2.20797 1.167073 -0 53.06975 -0 -4.559337 8.59424 -2.65612 -5.435186 -2.699891 -9.795548 -0 18.19576 -0 -2.379024 -12.44228 18.76659 0.1651863 0.2280514 7.019299 -1.912145 11.0621 -2.340142 2.614354 22.1922 2.753397 -1.384842 -17.78969 7.573283 -4.102948 -24.35948 7.954902 90.56256 16.32962 -9.540178 -0 0 22.57537 -18.79167 8.138893 13.5449 1.630898 -17.62279 -6.605079 -93.62534 22.74429 29.97701 0 0 -15.80075 -1.492357 1.984599 23.11877
-330.3688 106.3967 3156.213 -2.185796 -9.010352 -19.44499 0.1672304 -4.827916 0.8442377 -0 50.36221 -0 -4.798971 6.970744 -3.672584 -5.177961 2.048562 -9.825543 -0 16.14362 -0 -2.086262 -13.87456 18.07169 0.1676567 0.4918801 6.450353 -1.918765 10.65164 -2.528527 2.764058 22.61185 2.993787 -1.366585 -17.71069 8.022098 -4.105632 -22.96008 7.721702 91.55811 17.10038 -11.09656 -0 0 19.86423 -18.42124 7.57461 12.79194 1.654383 -18.41324 -6.762532 -91.80812 23.50149 26.74278 0 0 -17.91401 -0.7872884 2.166092 22.64367
-331.658 106.6658 3161.386 -2.227407 -8.571307 -18.59929 0.2584117 -11.14273 0.3511614 -0 43.7968 -0 -4.819604 4.368398 -4.458925 -5.009452 6.077332 -9.862729 -0 14.14936 -0 -1.947713 -15.49773 17.26515 0.1590266 0.6859805 5.851765 -1.908023 10.19068 -2.734763 2.910294 22.9883 3.253342 -1.337109 -17.66951 8.48437 -4.15361 -21.59306 7.466549 92.5578 17.93987 -12.61682 -0 0 17.15386 -18.1478 7.077354 12.1498 1.71628 -19.27653 -6.869281 -89.86045 24.08941 23.3712 0 0 -20.18044 0.02531046 2.486421 21.99483
-333.0081 106.3066 3166.535 -1.925082 -7.967111 -17.88174 0.07456107 -16.3024 -0.4763873 -0 34.9084 -0 -4.682617 1.902185 -4.897131 -5.038883 9.401096 -9.788071 -0 12.63895 -0 -1.899933 -17.20432 16.38614 0.1316186 0.7935768 5.261737 -1.866317 9.713113 -2.953856 3.041085 23.31042 3.522959 -1.281114 -17.6861 8.920202 -4.241051 -20.33773 7.220764 93.49849 18.74289 -14.02997 -0 0 14.58736 -17.98288 6.65733 11.63031 1.836617 -20.15778 -6.903696 -87.96505 24.49529 20.08712 0 0 -22.40197 0.8764097 2.945027 21.20631
-334.4834 105.3954 3171.836 -1.38287 -7.302993 -17.27327 -0.2222645 -20.20588 -1.585612 -0 25.41579 -0 -4.485404 0.3336347 -5.020276 -5.253431 12.17561 -9.502083 -0 11.99762 -0 -1.878139 -18.77894 15.50046 0.08465649 0.8085336 4.717333 -1.782275 9.270954 -3.184774 3.14446 23.57496 3.789591 -1.188721 -17.76648 9.289322 -4.349083 -19.256 7.019486 94.33434 19.40415 -15.30047 -0 0 12.26843 -17.909 6.326684 11.21773 2.019283 -21.01162 -6.870979 -86.28996 24.73978 17.1074 0 0 -24.41441 1.691534 3.524201 20.34228
-336.1359 104.1163 3177.42 -0.780759 -6.669312 -16.74625 -0.3810392 -22.89142 -2.709394 -0 16.88817 -0 -4.365294 -0.03787039 -4.963782 -5.544472 14.55202 -8.991156 -0 12.62978 -0 -1.865825 -19.91732 14.6842 0.02410678 0.7380731 4.251017 -1.653581 8.918691 -3.423242 3.210653 23.78387 4.039649 -1.058606 -17.90388 9.561279 -4.453774 -18.3915 6.891981 95.0341 19.84719 -16.40639 -0 0 10.27194 -17.89615 6.096098 10.88944 2.249965 -21.79845 -6.796345 -84.96174 24.86032 14.61804 0 0 -26.09571 2.405561 4.189335 19.47964
-338.0089 102.729 3183.363 -0.3332073 -6.156798 -16.28775 -0.1257799 -24.38416 -3.460599 -0 10.60057 -0 -4.467096 0.6515013 -4.894106 -5.741075 16.56012 -8.333551 -0 14.96789 -0 -1.926291 -20.26613 14.00398 -0.03817686 0.6023415 3.889004 -1.491253 8.701615 -3.657509 3.234375 23.94011 4.260219 -0.8983765 -18.08292 9.720169 -4.534559 -17.77433 6.855802 95.57923 20.04197 -17.32198 -0 0 8.65989 -17.92044 5.971064 10.63435 2.499328 -22.48132 -6.714263 -84.0561 24.89101 12.76436 0 0 -27.36028 2.971273 4.890744 18.69386
-340.1296 101.5323 3189.672 -0.2417212 -5.862456 -15.92359 0.7486133 -24.63097 -3.476439 -0 7.386519 -0 -4.871833 1.908584 -4.943549 -5.657637 18.0249 -7.666273 -0 19.39258 -0 -2.17515 -19.50257 13.52037 -0.0861828 0.429568 3.651491 -1.318931 8.650866 -3.869176 3.216139 24.0432 4.437794 -0.7231432 -18.28391 9.763022 -4.58008 -17.42785 6.915464 95.96324 20.00394 -18.01248 -0 0 7.493983 -17.97504 5.950534 10.46096 2.729362 -23.02653 -6.658568 -83.60345 24.84896 11.65238 0 0 -28.15076 3.359417 5.567164 18.05371
-342.488 100.8136 3196.274 -0.6197563 -5.870959 -15.73343 2.241672 -23.5236 -2.600717 -0 7.376655 -0 -5.521383 3.022207 -5.165371 -5.177344 18.54169 -7.117988 -0 26.04208 -0 -2.682943 -17.48135 13.31271 -0.1027284 0.2479437 3.553425 -1.167139 8.782902 -4.037852 3.161911 24.08623 4.556793 -0.552997 -18.4858 9.69479 -4.589863 -17.37356 7.064407 96.18978 19.77902 -18.43894 -0 0 6.839434 -18.0699 6.029672 10.39492 2.900965 -23.4073 -6.655374 -83.60047 24.73027 11.35273 0 0 -28.43501 3.554007 6.153047 17.62047
-345.0129 100.7765 3203.014 -1.400365 -6.216271 -15.83376 4.040005 -21.00109 -1.036395 -0 9.744608 -0 -6.201278 3.303774 -5.511703 -4.362579 17.5834 -6.726747 -0 34.54592 -0 -3.372451 -14.42736 13.47596 -0.07362261 0.07717948 3.604185 -1.064472 9.09961 -4.14695 3.081006 24.05577 4.600157 -0.4097643 -18.66823 9.523595 -4.571768 -17.63087 7.288307 96.26709 19.42471 -18.56632 -0 0 6.759092 -18.22306 6.206322 10.46968 2.981635 -23.60737 -6.718629 -84.01962 24.51362 11.89952 0 0 -28.20982 3.548849 6.590294 17.44319
